<svg width="19" height="17" viewBox="0 0 19 17" fill="none" xmlns="http://www.w3.org/2000/svg">
<g clip-path="url(#clip0_3026_2044)">
<path d="M18.2364 3.34863H15.3617V4.70462H18.2364C18.6034 4.70462 18.8998 4.40179 18.8998 4.02663C18.8998 3.65147 18.6034 3.34863 18.2364 3.34863ZM0.320312 4.02663C0.320312 4.40179 0.616628 4.70462 0.983706 4.70462H3.85841V3.34863H0.983706C0.616628 3.34863 0.320312 3.65147 0.320312 4.02663ZM3.63728 5.83461H0.983706C0.859873 5.83461 0.762575 5.93405 0.762575 6.06061V16.4565C0.762575 16.5831 0.859873 16.6825 0.983706 16.6825H3.63728C3.76111 16.6825 3.85841 16.5831 3.85841 16.4565V13.0666H2.09378C1.96995 13.0666 1.87265 12.9671 1.87265 12.8406V11.4846C1.87265 11.358 1.96995 11.2586 2.09378 11.2586H3.85841V9.45059H2.09378C1.96995 9.45059 1.87265 9.35115 1.87265 9.22459V7.8686C1.87265 7.74204 1.96995 7.6426 2.09378 7.6426H3.85841V6.06061C3.85841 5.93405 3.76111 5.83461 3.63728 5.83461ZM18.2364 5.83461H15.5828C15.459 5.83461 15.3617 5.93405 15.3617 6.06061V7.6426H17.1307C17.2545 7.6426 17.3518 7.74204 17.3518 7.8686V9.22459C17.3518 9.35115 17.2545 9.45059 17.1307 9.45059H15.3617V11.2586H17.1307C17.2545 11.2586 17.3518 11.358 17.3518 11.4846V12.8406C17.3518 12.9671 17.2545 13.0666 17.1307 13.0666H15.3617V16.4565C15.3617 16.5831 15.459 16.6825 15.5828 16.6825H18.2364C18.3602 16.6825 18.4575 16.5831 18.4575 16.4565V6.06061C18.4575 5.93405 18.3558 5.83461 18.2364 5.83461Z" fill="#3D3D3D"/>
<path d="M14.4771 0.636719H4.74738C4.3803 0.636719 4.08398 0.939557 4.08398 1.31471C4.08398 1.68987 4.3803 1.99271 4.74738 1.99271H4.96851V16.4566C4.96851 16.5832 5.06581 16.6826 5.18964 16.6826H14.0349C14.1587 16.6826 14.256 16.5832 14.256 16.4566V1.99271H14.4771C14.8442 1.99271 15.1405 1.68987 15.1405 1.31471C15.1405 0.939557 14.8442 0.636719 14.4771 0.636719ZM7.14002 5.66292C7.14002 5.46856 7.29481 5.31036 7.48498 5.31036H11.9386C12.1287 5.31036 12.2835 5.46856 12.2835 5.66292V7.58391C12.2835 7.77827 12.1287 7.93646 11.9386 7.93646H7.48498C7.29481 7.93646 7.14002 7.77827 7.14002 7.58391V5.66292ZM8.94887 14.6486C8.94887 14.7752 8.85157 14.8746 8.72774 14.8746H6.51643C6.39259 14.8746 6.2953 14.7752 6.2953 14.6486V11.5976C6.2953 11.4711 6.39259 11.3716 6.51643 11.3716H8.72774C8.85157 11.3716 8.94887 11.4711 8.94887 11.5976V14.6486ZM12.9292 14.6486C12.9292 14.7752 12.8319 14.8746 12.7081 14.8746H10.4968C10.373 14.8746 10.2757 14.7752 10.2757 14.6486V11.5976C10.2757 11.4711 10.373 11.3716 10.4968 11.3716H12.7081C12.8319 11.3716 12.9292 11.4711 12.9292 11.5976V14.6486Z" fill="#3D3D3D"/>
</g>
<defs>
<clipPath id="clip0_3026_2044">
<rect width="18.5794" height="16.0459" fill="white" transform="translate(0.320312 0.636719)"/>
</clipPath>
</defs>
</svg>
