<svg width="19" height="16" viewBox="0 0 19 16" fill="none" xmlns="http://www.w3.org/2000/svg">
<path d="M1.3457 2.82496H18.495" stroke="#231F20" stroke-width="0.840308" stroke-miterlimit="10" stroke-linecap="round"/>
<path d="M15.2475 4.48234C16.1802 4.48234 16.9363 3.72053 16.9363 2.78079C16.9363 1.84105 16.1802 1.07924 15.2475 1.07924C14.3147 1.07924 13.5586 1.84105 13.5586 2.78079C13.5586 3.72053 14.3147 4.48234 15.2475 4.48234Z" fill="white" stroke="#231F20" stroke-width="0.840308" stroke-miterlimit="10" stroke-linecap="round"/>
<path d="M18.495 8.32243H1.3457" stroke="#231F20" stroke-width="0.840308" stroke-miterlimit="10" stroke-linecap="round"/>
<path d="M4.72304 9.97981C5.65577 9.97981 6.41189 9.218 6.41189 8.27826C6.41189 7.33852 5.65577 6.57671 4.72304 6.57671C3.79031 6.57671 3.03418 7.33852 3.03418 8.27826C3.03418 9.218 3.79031 9.97981 4.72304 9.97981Z" fill="white" stroke="#231F20" stroke-width="0.840308" stroke-miterlimit="10" stroke-linecap="round"/>
<path d="M18.495 13.8199H1.3457" stroke="#231F20" stroke-width="0.840308" stroke-miterlimit="10" stroke-linecap="round"/>
<path d="M11.5228 15.4785C12.4556 15.4785 13.2117 14.7167 13.2117 13.7769C13.2117 12.8372 12.4556 12.0754 11.5228 12.0754C10.5901 12.0754 9.83398 12.8372 9.83398 13.7769C9.83398 14.7167 10.5901 15.4785 11.5228 15.4785Z" fill="white" stroke="#231F20" stroke-width="0.840308" stroke-miterlimit="10" stroke-linecap="round"/>
</svg>
