<svg width="15" height="17" viewBox="0 0 15 17" fill="none" xmlns="http://www.w3.org/2000/svg">
<g clip-path="url(#clip0_3026_2039)">
<path d="M7.19878 8.1038C9.2971 8.1038 10.9981 6.29989 10.9981 4.07465C10.9981 1.84941 9.2971 0.0455017 7.19878 0.0455017C5.10045 0.0455017 3.39941 1.84941 3.39941 4.07465C3.39941 6.29989 5.10045 8.1038 7.19878 8.1038Z" fill="#3D3D3D"/>
<path d="M9.69438 8.56458C9.0681 8.97494 8.19655 9.22873 7.23212 9.22873C6.28198 9.22873 5.42114 8.98125 4.79724 8.58225C2.19806 9.45475 0.253725 12.2364 0.0917969 15.4019C0.0917969 15.7819 0.382315 16.0913 0.741891 16.0913H13.7997C14.1581 16.0913 14.4498 15.7832 14.4498 15.4019C14.2855 12.2162 12.3186 9.41813 9.69438 8.56458Z" fill="#3D3D3D"/>
</g>
<defs>
<clipPath id="clip0_3026_2039">
<rect width="14.3568" height="16.0459" fill="white" transform="translate(0.0917969 0.0454102)"/>
</clipPath>
</defs>
</svg>
