<svg width="14" height="13" viewBox="0 0 14 13" fill="none" xmlns="http://www.w3.org/2000/svg">
<path d="M5.40334 10.3172C2.54779 10.3172 0.223633 8.00276 0.223633 5.15806C0.223633 2.31336 2.54779 0 5.40334 0C8.25889 0 10.583 2.31444 10.583 5.15806C10.583 8.00167 8.25998 10.3172 5.40334 10.3172ZM5.40334 0.962721C3.08027 0.962721 1.1893 2.8447 1.1893 5.15914C1.1893 7.4725 3.07918 9.35557 5.40334 9.35557C7.7264 9.35557 9.61737 7.47359 9.61737 5.15914C9.61737 2.8447 7.72749 0.962721 5.40334 0.962721Z" fill="#231F20"/>
<path d="M13 11.7015L10.1227 8.83616C10.0845 8.79813 10.0419 8.76445 9.99827 8.7362L8.9082 9.73152C8.94312 9.79671 8.98786 9.85756 9.04242 9.91189L11.9198 12.7772C12.0693 12.9261 12.2646 13 12.4599 13C12.6552 13 12.8505 12.9261 13 12.7772C13.2979 12.4806 13.2979 11.9992 13 11.7015Z" fill="#231F20"/>
</svg>
