<svg width="214" height="21" viewBox="0 0 214 21" fill="none" xmlns="http://www.w3.org/2000/svg">
<path d="M79.6543 18.9422V0.327423H87.8798C89.5307 0.327423 90.788 0.491133 91.6518 0.828183C92.5156 1.16523 93.1971 1.75266 93.7154 2.6001C94.2337 3.44754 94.4832 4.38165 94.4832 5.40243C94.4832 6.72174 94.0609 7.83882 93.2067 8.74404C92.3525 9.64926 91.0376 10.2271 89.2619 10.4678C89.9146 10.7856 90.4041 11.0938 90.74 11.3923C91.4599 12.0568 92.1317 12.8753 92.7748 13.8672L95.9997 18.9326H92.9092L90.4521 15.0613C89.7322 13.9442 89.1467 13.0872 88.6764 12.4997C88.2061 11.9123 87.7934 11.4886 87.4287 11.2575C87.064 11.0167 86.6896 10.853 86.3057 10.7663C86.0274 10.7086 85.5763 10.6797 84.9428 10.6797H82.0922V18.9422H79.6543ZM82.1114 8.54181H87.3903C88.5133 8.54181 89.3867 8.42625 90.0202 8.19513C90.6536 7.96401 91.1335 7.58844 91.4599 7.07805C91.7862 6.56766 91.9494 6.00912 91.9494 5.41206C91.9494 4.53573 91.6326 3.80385 90.9896 3.24531C90.3465 2.68677 89.3483 2.39787 87.9758 2.39787H82.1018V8.54181H82.1114Z" fill="#231F20"/>
<path d="M98.2266 18.9422V0.327423H111.635V2.52306H100.684V8.22402H110.944V10.41H100.684V16.7466H112.077V18.9422H98.2266Z" fill="#231F20"/>
<path d="M113.267 18.9422L120.388 0.327423H123.037L130.629 18.9422H127.836L125.677 13.3087H117.922L115.887 18.9422H113.267ZM118.622 11.296H124.909L122.97 6.14394C122.375 4.57425 121.943 3.29346 121.655 2.28231C121.415 3.47643 121.089 4.66092 120.657 5.83578L118.622 11.296Z" fill="#231F20"/>
<path d="M132.328 18.9422V0.327423H134.785V16.7466H143.923V18.9422H132.328Z" fill="#231F20"/>
<path d="M149.489 18.9422V2.52306H143.375V0.327423H158.079V2.52306H151.946V18.9422H149.489Z" fill="#231F20"/>
<path d="M159.222 9.88038C159.222 6.78915 160.047 4.37202 161.698 2.62899C163.349 0.88596 165.489 0 168.109 0C169.818 0 171.363 0.41409 172.745 1.23264C174.127 2.05119 175.174 3.19716 175.893 4.67055C176.613 6.14394 176.978 7.8003 176.978 9.66852C176.978 11.556 176.594 13.2413 175.836 14.7339C175.078 16.2266 174.003 17.3533 172.611 18.114C171.219 18.8748 169.703 19.26 168.1 19.26C166.353 19.26 164.789 18.8363 163.416 17.9888C162.043 17.1414 160.997 15.9858 160.287 14.522C159.577 13.0583 159.222 11.5079 159.222 9.88038ZM161.756 9.9189C161.756 12.1627 162.36 13.925 163.56 15.2154C164.76 16.5058 166.267 17.151 168.081 17.151C169.923 17.151 171.45 16.4962 172.64 15.1961C173.83 13.8961 174.435 12.0471 174.435 9.64926C174.435 8.13735 174.175 6.80841 173.667 5.6817C173.158 4.55499 172.409 3.67866 171.43 3.05271C170.451 2.42676 169.348 2.1186 168.119 2.1186C166.382 2.1186 164.885 2.71566 163.637 3.91941C162.379 5.11353 161.756 7.11657 161.756 9.9189Z" fill="#231F20"/>
<path d="M180.011 18.9422V0.327423H188.236C189.887 0.327423 191.144 0.491133 192.008 0.828183C192.872 1.16523 193.554 1.75266 194.072 2.6001C194.59 3.44754 194.84 4.38165 194.84 5.40243C194.84 6.72174 194.417 7.83882 193.563 8.74404C192.709 9.64926 191.394 10.2271 189.618 10.4678C190.271 10.7856 190.761 11.0938 191.096 11.3923C191.816 12.0568 192.488 12.8753 193.131 13.8672L196.356 18.9326H193.266L190.809 15.0613C190.089 13.9442 189.503 13.0872 189.033 12.4997C188.563 11.9123 188.15 11.4886 187.785 11.2575C187.42 11.0167 187.046 10.853 186.662 10.7663C186.384 10.7086 185.933 10.6797 185.299 10.6797H182.449V18.9422H180.011ZM182.468 8.54181H187.747C188.87 8.54181 189.743 8.42625 190.377 8.19513C191.01 7.96401 191.49 7.58844 191.816 7.07805C192.143 6.56766 192.306 6.00912 192.306 5.41206C192.306 4.53573 191.989 3.80385 191.346 3.24531C190.713 2.67714 189.705 2.39787 188.332 2.39787H182.458V8.54181H182.468Z" fill="#231F20"/>
<path d="M197.7 12.962L200.013 12.7598C200.119 13.6939 200.378 14.4546 200.781 15.0517C201.184 15.6488 201.808 16.1302 202.643 16.4962C203.488 16.8621 204.438 17.0451 205.494 17.0451C206.434 17.0451 207.26 16.9007 207.97 16.6214C208.68 16.3421 209.218 15.9569 209.573 15.4754C209.919 14.9939 210.101 14.4546 210.101 13.8865C210.101 13.299 209.928 12.7886 209.592 12.3553C209.256 11.9219 208.7 11.556 207.922 11.2575C207.423 11.0649 206.319 10.7567 204.62 10.3523C202.912 9.93816 201.722 9.55296 201.04 9.18702C200.157 8.72478 199.495 8.14698 199.063 7.45362C198.631 6.76026 198.41 5.98986 198.41 5.13279C198.41 4.18905 198.679 3.31272 199.207 2.49417C199.735 1.67562 200.512 1.0593 201.539 0.63558C202.566 0.21186 203.699 0 204.947 0C206.319 0 207.538 0.22149 208.584 0.66447C209.631 1.10745 210.446 1.76229 211.003 2.62899C211.56 3.49569 211.877 4.46832 211.915 5.56614L209.563 5.73948C209.439 4.56462 209.007 3.67866 208.277 3.07197C207.548 2.47491 206.473 2.16675 205.043 2.16675C203.555 2.16675 202.48 2.43639 201.799 2.9853C201.117 3.53421 200.781 4.18905 200.781 4.95945C200.781 5.62392 201.021 6.18246 201.501 6.60618C201.971 7.03953 203.209 7.48251 205.206 7.93512C207.202 8.38773 208.565 8.78256 209.314 9.11961C210.389 9.62037 211.195 10.2559 211.704 11.0167C212.222 11.7871 212.472 12.6634 212.472 13.665C212.472 14.6569 212.193 15.591 211.627 16.4673C211.061 17.3436 210.254 18.0274 209.189 18.5089C208.133 19 206.943 19.2407 205.619 19.2407C203.939 19.2407 202.538 19 201.395 18.5089C200.263 18.0177 199.37 17.2762 198.727 16.294C198.075 15.3213 197.729 14.2043 197.7 12.962Z" fill="#231F20"/>
<path d="M0 0.52002H17.0845V5.02686H11.3545V18.7689H5.73002V5.02686H0V0.52002Z" fill="#F13525"/>
<path d="M19.8291 0.52002H34.8884V4.42017H25.4631V7.3188H34.2069V11.036H25.4631V14.6376H35.1667V18.7689H19.8291V0.52002Z" fill="#F13525"/>
<path d="M50.5915 11.296L55.5153 12.7887C55.189 14.1754 54.6611 15.331 53.9509 16.2651C53.2406 17.1992 52.3576 17.8926 51.3018 18.3644C50.246 18.8363 48.9023 19.0771 47.2802 19.0771C45.303 19.0771 43.6906 18.7882 42.4332 18.2104C41.1759 17.6326 40.1009 16.6214 39.1891 15.1673C38.2773 13.7132 37.8262 11.8546 37.8262 9.59151C37.8262 6.57732 38.6228 4.25649 40.2257 2.62902C41.8285 1.01118 44.0937 0.192627 47.0211 0.192627C49.315 0.192627 51.1098 0.654867 52.4248 1.58898C53.7397 2.52309 54.7091 3.95796 55.3426 5.88396L50.3804 6.99141C50.2076 6.43287 50.0253 6.02841 49.8333 5.7684C49.5166 5.33505 49.1326 5.00763 48.6815 4.77651C48.2304 4.54539 47.7217 4.42983 47.1555 4.42983C45.8789 4.42983 44.9095 4.94022 44.2281 5.97063C43.7194 6.7314 43.4602 7.93515 43.4602 9.56262C43.4602 11.5849 43.7674 12.9716 44.3816 13.7228C44.9959 14.4739 45.8501 14.8495 46.9635 14.8495C48.0385 14.8495 48.8543 14.551 49.4014 13.9443C49.9485 13.3376 50.3516 12.4516 50.5915 11.296Z" fill="#F13525"/>
<path d="M58.4805 0.52002H64.0953V6.90471H70.238V0.52002H75.8817V18.7689H70.238V11.3923H64.0953V18.7689H58.4805V0.52002Z" fill="#F13525"/>
</svg>
